<svg width="128" height="128" viewBox="0 0 128 128" fill="none" xmlns="http://www.w3.org/2000/svg">
<path d="M50.1601 37.8145C53.4325 43.8807 59.6542 47.3669 65.9901 47.3669C68.6843 47.3669 71.398 46.7353 73.9148 45.4064C75.3433 44.6679 76.7038 43.6864 77.9549 42.4862L78.0837 42.3624L77.2067 41.6894L77.1119 41.789C76.0503 42.8992 74.8453 43.8054 73.4338 44.5585C66.131 48.4407 56.8726 44.9084 52.3563 36.5123C49.9974 32.154 49.3779 27.2782 50.6509 23.1312C51.7514 19.5527 54.1371 16.7249 57.5528 14.9538C63.4295 11.8685 69.1799 12.5123 74.1723 16.8123C75.7685 18.3331 76.6868 19.7519 76.8277 20.918L76.8447 21.0516H77.2285V16.2876L77.1702 16.2414C71.002 11.4385 63.6773 10.6756 57.0742 14.1521C53.0681 16.2463 50.1212 19.7932 48.7826 24.137C47.3833 28.6702 47.8716 33.529 50.1577 37.8121L50.1601 37.8145Z" fill="#6D6E6E"/>
<path d="M63.2279 77.9725C59.5668 77.8924 56.1413 79.1921 53.6074 81.6312C51.3019 83.8517 50.0046 86.7961 49.9536 89.9228C49.9026 93.2243 51.2145 96.3364 53.6488 98.6881C56.0782 101.035 59.3457 102.354 62.8513 102.405C66.216 102.5 69.4204 101.399 71.9251 99.2954C69.4617 104.728 63.6385 112.045 54.7906 115.706L54.0836 116H56.6709L56.6976 115.99C67.5935 111.775 76.128 100.583 76.1304 90.5083C76.2349 83.757 70.4481 78.1329 63.2327 77.9725H63.2279ZM73.8201 90.5058C73.7691 93.6203 72.6394 96.4725 70.6351 98.535C68.6163 100.615 65.8589 101.742 62.8586 101.684C56.7632 101.581 52.2057 96.5283 52.2616 89.9325C52.4219 83.2905 56.8361 78.6989 63.019 78.6989C63.087 78.6989 63.1526 78.6989 63.2206 78.6989C69.3184 78.8471 73.8735 83.9222 73.8201 90.5034V90.5058Z" fill="#6D6E6E"/>
<path d="M48.8774 61.7053L48.7195 61.698V63.6366L48.8774 63.6293C63.0724 63.039 65.9998 63.039 80.1948 63.6293L80.3527 63.6366V61.698L80.1948 61.7053C65.9998 62.2956 63.0724 62.2956 48.8774 61.7053Z" fill="#6D6E6E"/>
</svg>
